<?xml version="1.0" encoding="utf-8"?>
<!-- Generator: Adobe Illustrator 26.3.1, SVG Export Plug-In . SVG Version: 6.00 Build 0)  -->
<svg version="1.1" xmlns="http://www.w3.org/2000/svg" xmlns:xlink="http://www.w3.org/1999/xlink" x="0px" y="0px" width="800px"
	 height="220px" viewBox="0 0 800 220" style="enable-background:new 0 0 800 220;" xml:space="preserve">
<style type="text/css">
	.st0{enable-background:new    ;}
	.st1{fill:#FFFFFF;}
	.st2{fill:#080808;}
	.st3{opacity:0.44;fill:#FFE73B;enable-background:new    ;}
	.st4{opacity:0.44;fill:#0000FF;enable-background:new    ;}
	.st5{display:none;opacity:0.21;}
	.st6{display:inline;fill:#080808;}
	.st7{display:inline;}
	.st8{display:none;}
	.st9{clip-path:url(#SVGID_00000075862295514597789270000018384095126076338057_);}
	.st10{clip-path:url(#SVGID_00000062161317699026136170000001948862171446686367_);}
	.st11{clip-path:url(#SVGID_00000038389361516001301770000013307022856356792228_);}
	.st12{clip-path:url(#SVGID_00000013187196775057645780000002783797274861015969_);}
	.st13{opacity:0.44;fill:#FF39AF;enable-background:new    ;}
</style>
<g id="レイヤー_1">
</g>
<g id="レイヤー_2">
	<g id="_x2F_top-story_00000116920452351761721450000009337496175025326745_" transform="translate(-43.541 -1869.978)">
		<path id="合体_13_00000065057218155460181310000005005897152813588650_" class="st2" d="M192.8746185,2052.0200195
			c-0.6190186-0.4050293-1.2409668-0.8110352-1.8840332-1.2290039c-3.6999512-1.3398438-6.7869873-3.0529785-7.651001-6.1599121
			c-2.3360596-0.7050781-3.552002-1.9899902-3.8430176-3.7550049c-5.7939453-4.44104-10.9449463-9.177002-13.473999-15.1080322
			c-3.8740234-2.68396-8.1159668-5.1230469-11.1590576-8.3609619c3.4919434-0.434082,8.2290039,0.0880127,6.5699463-4.3000488
			c-4.2330322-1.4119873-8.092041-3.1390381-10.9890137-5.677002c-10.8640137,1.0999756-20.4250488,1.7550049-20.1259766,0.3070068
			c0.3850098-1.8580322,2.6190186-1.6290283,4.8669434-1.4000244c0.9604492,0.1347656,1.9317627,0.1746826,2.9000244,0.1190186
			c1.5413818-1.0588379,3.4919434-1.3286133,5.2629395-0.7280273c3.1639404,1.19104,2.9940186,0.5839844,2.3530273-0.2709961
			c-2.5679932-0.7209473-3.2600098-2.9630127-4.7609863-4.5469971l-0.8769531,0.0750732l-0.8800049-0.1240234
			c-3.1669922,0.3249512-5.9050293-0.7740479-8.8499756-1.1850586c1.447998-1.2799072,3.31604-1.256958,5.1850586-1.2290039
			c0.6610107,0.0080566,1.3210449,0.0180664,1.9639893-0.0279541c0.5722656-0.0900879,1.154541-0.0977783,1.7290039-0.0229492
			c0.5461426-0.1676025,1.1099854-0.2706299,1.6800537-0.3070068c2.3189697-2.6240234,7.1719971-1.8310547,10.131958-3.5930176
			c-0.0880127-0.15271-0.1696777-0.3083496-0.2449951-0.467041c-1.4841309-1.3465576-3.1010742-2.5390625-4.8260498-3.55896
			c-1.2159424-0.5910645-2.1130371-1.1669922-2.131958-1.7449951c-0.7869873-0.0910645-1.6159668-0.1530762-2.4589844-0.2110596
			c1.9022217-1.8937988,2.9554443-4.4780273,2.9189453-7.1619873l0.7519531-0.5389404
			c-0.0489502-0.0631104-0.0939941-0.125-0.1359863-0.1860352c-1.2099609-1.7580566-4.6789551,0.1209717-7.1120605,0.5880127
			c-4.0279541,0.7739258-6.2889404,4.6999512-12.1999512,3.0269775c7.7290039-0.1159668,0.9599609-7.5999756,8.2399902-7.9460449
			c-3.8289795-1.8999023-8.9160156-0.3609619-12.4000244-2.605957l-3.5479736-1.0999756
			c-1.4219971-0.118042-2.8439941-0.2373047-4.2659912-0.3580322c-2.4439697-2.4730225,20.1650391-6.993042,16.2340088-7.1589355
			c-5.6121826-0.3662109-11.1270752-1.6446533-16.3280029-3.7850342c-3.9360352-1.4890137,8.8890381-5.9489746,4.7540283-6.3720703
			c-6.743042-2.032959,13.0200195-10.440918,14.3719482-16.5930176c0.4749756-2.1599121-1.2049561-3.651001-3.1999512-5.0449219
			c-1.3470459-1-1.7719727-2.5810547-3.723999-3.2000732c-0.8413086-0.1641846-1.6271973-0.5391846-2.2840576-1.0899658
			c-0.3511963-0.6479492-0.8001709-1.237793-1.3310547-1.7490234c-4.1810303-2.7999268-7.8869629-5.7109375-4.6870117-10.1469727
			c0.4328613-0.1497803,0.8760986-0.2680664,1.3260498-0.3540039c-0.0600586-0.0639648-0.1209717-0.1290283-0.1779785-0.1929932
			c-4.5369873-3.4139404-10.5319824-1.9310303-15.7399902-3.0999756c0.6999512-3.3709717,3.7370605-4.2869873,7.9870605-4.3800049
			c0.6519775,0.0021973,1.3032227,0.039917,1.9510498,0.1130371c2.5999756,0.2349854,5.4060059,0.4730225,4.3520508-3.2930908
			c-0.3000488-1.0759277,1.5839844-1.1429443,2.4919434-0.8540039c7.3189697,2.3380127,15.5080566,1.9940186,22.7619629,4.4820557
			c0.7957764,0.0946045,1.5535889,0.3931885,2.1999512,0.8669434l6.4100342,0.4460449
			c1.5852051-0.9411621,3.5040283-1.1375732,5.2469482-0.5369873l11.092041,2.4289551
			c2.0866699,0.020752,4.1776123,0.0419922,6.2729492,0.0640869l0.1650391-3.3000488
			c-2.0313721-0.1826172-4.0646973-0.3634033-6.0999756-0.5419922c5.2619629-2.5230713,11.2209473-2.2780762,17.3120117-2.0209961
			c6.9000244,0.2949219,13.5629883,3.3399658,19.9460449,3.0709229c16.7399902-0.7069092,33.144043,2.0670166,49.6999512,2.9630127
			c0.7613525,0.0184326,1.5200043,0.0966797,2.2690277,0.2340088c4.1190186,0.822998,9.7729492-0.8519287,11.3320312,4.1320801
			c14.3046875,1.1999512,28.6083984,2.397583,42.9110107,3.5928955c4.1760254-1.7109375,8.7619629-0.8389893,13.1750488-0.513916
			c11.2209473,0.8309326,22.4310303,1.8289795,33.6369629,2.8309326c4.5059814,0.4000244,8.9799805,0.9000244,13.2230225-0.5
			c0.0419922-0.5599365,0.0909424-1.1140137,0.1469727-1.6719971l13.7110596,1.1380615
			c11.5410156,0.230957,7.75-1.0860596,3.5179443-2.06604c2.4599609,0.1096191,4.9179688-0.2567139,7.2390137-1.0789795
			c7.6800537-3.006958,16.1450195-2.3000488,24.3000488-1.9100342c6.2320557,0.3000488,13.0999756-0.5620117,18.7299805,2.9859619
			c11.1560059,1.1199951,22.18396,3.5460205,33.5250244,3c0.5209961-0.0249023,1.0269775-0.0209961,1.5179443-0.0159912
			c1.8580322,0.0230713,3.5179443,0.0469971,5.1560059-1.6259766c4.4779053-4.5780029,10.7301025-4.526001,17.2440186-1.3540039
			c3.9899902-0.1240234,7.0219727,2.3000488,10.8588867,2.5910645c0.9599609,0.4699707,1.9460449,0.9139404,2.875,1.4139404
			c6.9741516,3.7680664,7.2309875,6.5369873,1.1411133,10.3000488c-3.3701172,2.0849609-6.5620117,4.3249512-9.8349609,6.4929199
			c-0.7922363,0.2288818-1.6452637,0.0957031-2.3300781-0.3640137c-0.0500488,0.1450195-0.1000977,0.2890625-0.1411133,0.4320068
			c1.7414551,0.0667725,3.484375,0.1700439,5.2290039,0.3100586c2.8891602,0.0969238,5.7790527-0.1738281,8.6001282-0.8060303
			c2.4658203-0.5092773,4.9719238-0.7983398,7.4890137-0.8640137c4.8820801,0.0130615,9.6621094,0.0280762,13.7780762,2.1450195
			c-1.2001953,0.052002-2.3999023,0.1026611-3.6000977,0.1519775c-0.5500488,0.8590088-1.1000977,1.7160645-1.6489258,2.5780029
			c1.2241211,0.0380859,2.4519043,0.0770264,3.6779785,0.118042l9.0270996-0.5720215
			c1.6860352-1.3182373,4.0224609-1.4222412,5.8190918-0.2590332l5.1999512-0.1569824
			c0.5288086-0.3215332,1.126709-0.5128174,1.7438965-0.5579834c5.8999023-1.6560059,12.4440918-1.1119385,18.3930664-2.6550293
			c0.7380371-0.190918,2.2480469-0.0749512,1.9641113,0.7380371c-0.9929199,2.8609619,1.2770996,2.769043,3.3679199,2.6760254
			c0.552002-0.0230713,1.092041-0.0460205,1.5539551-0.0180664c3.3999023,0.2189941,5.8000488,1.0240479,6.2250977,3.6340332
			c-1.5136719,0.210083-3.0424805,0.2927246-4.5700684,0.2470703c-2.8520508,0-5.7060547-0.0100098-8.1469727,1.5869141
			l-0.1489258,0.1430664c0.3552246,0.0811768,0.7043457,0.1870117,1.0449219,0.3170166
			c2.3930664,3.5109863-0.6870117,5.6149902-4.1398926,7.6229248c-0.4431152,0.3724365-0.8261719,0.8109131-1.1359863,1.3000488
			c-0.5512695,0.4013672-1.192627,0.6610107-1.8679199,0.7559814c-1.5869141,0.4050293-1.9890137,1.5999756-3.1000977,2.3249512
			c-1.6459961,1-3.0480957,2.085083-2.7509766,3.7630615c0.8439941,4.7640381,16.3391113,11.8919678,10.8649902,13.2209473
			c-3.3269043,0.1810303,6.763916,4.0410156,3.5559082,5.0510254c-4.2561035,1.4658203-8.715332,2.2563477-13.2160645,2.3430176
			c-3.1530762-0.0100098,14.7719727,4.2369385,12.7209473,6.0469971l-3.6730957,0.1390381
			c-0.5939941,0.0339355-1.1875,0.0709229-1.7800293,0.1109619c-2.8879395,2.5209961-7.4169922,0.7120361-10.8859863,2.1779785
			c5.8139648,0.5140381,0.1079102,6.0230713,6.2919922,6.3770752c-4.8000488,1.0839844-6.4589844-2.0080566-9.6540527-2.7370605
			c-1.9309082-0.4439697-4.6330566-2.0059814-5.6699219-0.6999512c-1.0368652,1.3059082-4.6760254,3.4069824-0.4589844,5.3070068
			c1.8510742,0.8359375,0.8999023,1.5219727-0.7670898,2.2089844c-1.4150391,0.7197266-2.7548828,1.5782471-4,2.5629883
			c-0.8005371,1.329834-2.0761719,2.3062744-3.5690918,2.7319336l-0.1000977-2.381958c-0.0690918,0-0.1420898,0-0.2141113,0
			c-1.8688965,1.6159668-7.1540527,1.5129395-5.1640625,5.0629883l2.1159668,1.2390137
			c1.2019043-0.0482178,2.3859863,0.3034668,3.3669434,1c1.2380371-0.5876465,2.6826172-0.5463867,3.8850098,0.1109619
			c1.2253418-0.0466309,2.4509277-0.0949707,3.677002-0.1450195c0.9829102-0.1448975,0.4370117,0.434082-0.1000977,1.0090332
			c-0.7089844,0.7669678-1.3911133,1.532959,1.6000977,0.5999756c1.4353027-0.3988037,2.973877-0.1275635,4.1860352,0.7380371
			c0.7719727,0.0767822,1.5495605,0.0794678,2.3220215,0.0080566c1.8068848-0.1000977,3.6079102-0.2000732,3.8430176,1.2409668
			c0.2319336,1.4000244-11.8139648-0.25-22.7700195-1.9000244c-8.361084-1.2650146-16.0849609-2.526001-17.2290039-2.4289551
			c-1.425293,0.0217285-2.8007812,0.5281982-3.8999023,1.4359131c0.8540039,2.1540527-2.3540039,1.6530762-3.3859863,2.5800781
			c-1.5691223,1.6049805-3.7881165,1.5819092-6.0210266,1.55896c-0.4819336,0-0.9680176-0.0100098-1.4450684,0
			c0.0742188,0.8927002,0.1489258,1.7840576,0.2250977,2.6739502c-2.0390625,0.1000977-4.0749512,0.269043-6.111084,0.2810059
			c-3.9838867,0.0280762-4.9350586,1.7080078-4.7119141,4.0900879c-4.0668945,1.7709961-8.5371094,1.7169189-13.0100098,1.6369629
			c-4.9250488-0.0209961-13.5999756-0.7619629-22.7139893-1.4160156c-2.9090576,0.840332-5.6656494,2.1390381-8.1660156,3.8470459
			c-0.4730225,2.2810059-2.0670166,3.8839111-5.0250244,4.6710205c-1.2709961,3.9919434-5.2349854,6.052002-9.9250488,7.5849609
			c-0.8260498,0.5109863-1.6259766,1-2.4289551,1.4940186c-16.6400146,5.7999268-33.5510254,3.8658447-50.5579834-0.8540039
			c-10.8166504-3.666748-21.6325684-7.3353271-32.447998-11.0059814
			c-5.4040527,0.2565918-10.8083496,0.4996338-16.2130127,0.7290039
			c-13.9000244,0.6088867-26.8530273,4.052002-40.3000488,5.9539795c-7.4630127,1.0579834-14.7919922,2.657959-22.1810303,4.0159912
			c-3.7600098,0.3380127-7.1870117,1.8449707-11.0679932,1.7469482c-9.0740814,2.5186768-18.1475677,5.0384521-27.220932,7.55896
			c-6.6556396,1.5571289-13.4603271,2.3894043-20.2950439,2.4821777
			C206.1935883,2055.6535645,199.3368988,2054.4470215,192.8746185,2052.0200195z M383.6226501,1919.1480713
			c0,0,2.526001,0.4449463,4.9110107,1c-1.6878662,0.0041504-3.3588867-0.3356934-4.9110107-0.9990234V1919.1480713z"/>
		<g id="グループ_270_00000049944372287219437770000001405423627761973418_">
			<g class="st0">
				<path class="st1" d="M212.3950043,1940.1264648c11.7700195,0,17.8198242,7.0400391,17.8198242,19.3603516v2.4199219h-11.4399414
					v-3.1894531c0-5.5-2.199707-7.5908203-6.0498047-7.5908203s-6.050293,2.0908203-6.050293,7.5908203
					c0,5.609375,2.4199219,9.7900391,10.340332,16.7197266c10.1201172,8.9101562,13.3100586,15.2900391,13.3100586,24.0898438
					c0,12.3203125-6.1601562,19.3603516-18.0400391,19.3603516c-11.8803711,0-18.0405273-7.0400391-18.0405273-19.3603516
					v-4.7294922h11.4404297v5.5c0,5.5,2.4199219,7.4794922,6.2700195,7.4794922s6.2700195-1.9794922,6.2700195-7.4794922
					c0-5.6103516-2.4199219-9.7900391-10.340332-16.7207031c-10.1201172-8.9091797-13.3100586-15.2900391-13.3100586-24.0898438
					C194.5746918,1947.1665039,200.6249847,1940.1264648,212.3950043,1940.1264648z"/>
				<path class="st1" d="M232.6337738,1941.0073242h37.4003754v11h-12.6499023v66h-12.1000824v-66h-12.6503906V1941.0073242z"/>
				<path class="st1" d="M273.2226257,1959.4868164c0-12.3203125,6.4897461-19.3603516,18.3701172-19.3603516
					c11.8798828,0,18.3701172,7.0400391,18.3701172,19.3603516v40.0400391c0,12.3203125-6.4902344,19.3603516-18.3701172,19.3603516
					c-11.8803711,0-18.3701172-7.0400391-18.3701172-19.3603516V1959.4868164z M285.3227234,2000.2973633
					c0,5.5,2.4199219,7.5898438,6.2700195,7.5898438s6.2700195-2.0898438,6.2700195-7.5898438v-41.5800781
					c0-5.5-2.4199219-7.5908203-6.2700195-7.5908203s-6.2700195,2.0908203-6.2700195,7.5908203V2000.2973633z"/>
				<path class="st1" d="M341.9726257,2018.0073242c-0.6601562-1.9804688-1.1000977-3.1904297-1.1000977-9.4599609v-12.1005859
					c0-7.1494141-2.4199219-9.7900391-7.9199219-9.7900391h-4.1801758v31.3505859h-12.1000977v-77h18.2602539
					c12.5400391,0,17.9301758,5.8300781,17.9301758,17.7099609v6.0498047c0,7.9199219-2.5302734,12.9804688-7.9199219,15.5097656
					v0.2207031c6.0498047,2.5292969,8.0297852,8.25,8.0297852,16.2792969v11.8808594
					c0,3.7392578,0.1098633,6.4892578,1.3198242,9.3496094H341.9726257z M328.7724304,1952.0073242v23.6494141h4.7299805
					c4.5102539,0,7.2602539-1.9794922,7.2602539-8.1396484v-7.5898438c0-5.5-1.8701172-7.9199219-6.1601562-7.9199219H328.7724304z"
					/>
				<path class="st1" d="M370.0219421,1992.4868164l-15.2900391-51.4794922h12.6499023l9.1303711,35.0898438h0.2197266
					l9.1303711-35.0898438h11.5498047l-15.2900391,51.4794922v25.5205078h-12.1000977V1992.4868164z"/>
			</g>
		</g>
	</g>
</g>
<g id="レイヤー_3">
</g>
</svg>
